<?xml version="1.0" encoding="UTF-8"?>
<svg id="Layer_2" data-name="Layer 2" xmlns="http://www.w3.org/2000/svg" viewBox="0 0 325.21 108.33">
  <defs>
    <style>
      .cls-1 {
        fill: #dec0e0;
        font-size: 12px;
      }

      .cls-1, .cls-2 {
        font-family: DiavloBlack-Regular, Diavlo;
      }

      .cls-3 {
        fill: #8e56fe;
      }

      .cls-4 {
        letter-spacing: 0em;
      }

      .cls-5 {
        letter-spacing: -.02em;
      }

      .cls-6 {
        letter-spacing: -.04em;
      }

      .cls-7 {
        letter-spacing: -.04em;
      }

      .cls-2 {
        fill: #d989f4;
        font-size: 30.14px;
      }
    </style>
  </defs>
  <g id="Layer_1-2" data-name="Layer 1">
    <text class="cls-2" transform="translate(0 86.18)"><tspan x="0" y="0">RARE, ICONIC, QUEEN</tspan></text>
    <g>
      <path class="cls-3" d="M105.61,8.4c.19,3.05,1.17,5.89.75,9,3.33-.4,11.33-3.27,12.02,1.88.8,5.89-7.51,4.97-11.28,4.87.24,6.11-1.98,8.98,5.58,8.21,4.67-.47,9.14-3.14,13.92-1.46-.51-2.47-.76-4.89.72-7.16,1.35-2.07,3.03-1.43,4.51-2.24s3.59-2.98,5.05-3.25c3.63-.68,5.75,5.5,8.85,5.2,1.34-.13,5.78-4.9,8.6-5.7,7.9-2.25,9.08,4.02,12.43,9.38,1.2,1.93,4.75,4.5,3.79,7.54-.79,2.5-3.22,3.87-5.71,2.62-1.97-.99-6.83-9.86-7.92-10.11-3.77-.86-5.71,9.14-11.81,7.34-1.81-.53-8.26-7.23-9.5-5.87-.45.5-1.35,5.55-2.4,6.6-1.79,1.78-3.76-.04-5.42.09-.6.05-.52,1.3-1.17,1.92-1.65,1.56-3.79.83-5.59,1.18-5.59,1.08-15.82,4.61-19.93-.41-3.12-3.82-1.95-13.82-2.22-18.78-.07-1.27-.69-2.39-.8-3.7-.17-1.89.54-5.93-.32-7.18-.52-.76-2.47-1.08-3.05-2.2-.7-1.35-.69-3.86.38-4.91,2.5-2.45,16.52-.45,20.65-1.12,2.86.67,4.91,4.69,2.28,6.8-2.98,2.4-8.79,1.16-12.42,1.46Z"/>
      <path class="cls-3" d="M217.22,59.26c-2.48,1.35-7.71,1.79-8.14-1.75-.36-2.93,3.14-12.66,3.74-16.54.41-2.64.62-5.25.05-7.83-1.07-1.25-4.59,5.02-5.26,5.61-2.51,2.2-5.79,2.11-8.53.31s-2.19-7.84-1.98-10.82c.11-1.54.53-4.37.79-5.96,1.23-7.29,9.93-4.27,8.23,2.61,4.09-1.14,6.52-9.09,10.74-8.14,3.18.72,4.74,4.76,5.04,7.74.55,5.57.18,14.63-.93,20.12-.95,4.67-2.87,9.83-3.73,14.64Z"/>
      <path class="cls-3" d="M190.1,1.76c2.01-.22,4.62,2.62,4.79,4.73.32,3.89-.7,7.17-.81,10.51-.25,7.07.99,16.73.04,23.29-.19,1.3-2.05,3.28-3.39,3.41-2.68.26-4.68-3.29-4.9-5.64-.74-8.16-.14-19.7.74-27.82.3-2.74-.62-8.02,3.53-8.48Z"/>
      <path class="cls-3" d="M176.64,28.75c5.44-.98,8.26,10.12,1.98,11.04-3.95.58-7.75-10-1.98-11.04Z"/>
      <circle class="cls-3" cx="177.73" cy="14.29" r="4.09"/>
    </g>
    <text class="cls-1" transform="translate(100.87 105.36)"><tspan class="cls-6" x="0" y="0">F</tspan><tspan x="6.13" y="0">o</tspan><tspan class="cls-5" x="13.45" y="0">r</tspan><tspan class="cls-4" x="18.6" y="0">eve</tspan><tspan class="cls-6" x="38.47" y="0">r</tspan><tspan x="43.38" y="0" xml:space="preserve"> in ou</tspan><tspan class="cls-7" x="75.17" y="0">r</tspan><tspan x="80.08" y="0" xml:space="preserve"> Hearts</tspan></text>
  </g>
</svg>