<?xml version="1.0" encoding="UTF-8"?>
<svg id="Layer_2" data-name="Layer 2" xmlns="http://www.w3.org/2000/svg" viewBox="0 0 341.03 160.42">
  <defs>
    <style>
      .cls-1 {
        fill: #8d53fe;
      }

      .cls-2 {
        fill: #8c53fe;
      }
    </style>
  </defs>
  <g id="Layer_1-2" data-name="Layer 1">
    <g>
      <path class="cls-2" d="M32.37,46.24c8.96.61,22.51-7.31,29.66.71,5.28,5.93,1.6,14.34-5.64,16.18-4.26,1.08-19.64-.61-21.84,2.16-2.32,2.91,1.12,14.69.09,18.8.73,3.9,9,2.87,12.26,2.56,12.99-1.26,27.53-9,40.21-2.91-1.76-7.6-2.61-19.87,5.72-23.9,2.47-1.2,4.83-1.14,6.96-2.04,9.42-3.94,12.11-14.83,24.07-4.44,4.36,3.79,6.12,9.79,13.09,9.41,4.73-.26,11.93-9.12,17.15-12.16,22.92-13.32,26.03,1.18,36.49,17.02,5.16,7.81,17.19,18.34,10.85,28.07-11.08,17.04-25.75-16.21-32.2-21.73-3.44-2.95-5.73-1.21-8.65,1.13-3.9,3.14-14.43,16.99-17.64,17.62-4.94.97-9.78-3.15-13.65-5.82-2.57-1.78-14.84-12.16-16.35-12.17-5.3-.03-4.43,18.06-12.17,20.07-2.8.72-6.36.23-8.74-1.4-1.11-.76-.81-2.19-1.94-2.15-.71,5.52-4.98,9.25-10.31,10.32-1.66.33-3.39-.03-4.98.27-14.1,2.65-46.12,11.57-56.36-.83-6.55-7.93-4.22-25.53-4.87-35.63-.92-14.46-3-28.87-3.09-43.41-.61-1.79-8.87-1.89-10.22-8.52C-1.38,5.24,4.22,1.98,11.21.7c5.39-.99,9.16-.16,14.01-.18,9.15-.04,22.93-1.17,31.47.03,7.9,1.12,13.26,10.24,7.18,16.8-6.98,7.54-28.63.02-32.3,5.2-2.51,3.55,1.54,18.63.8,23.68Z"/>
      <path class="cls-2" d="M317.37,86.74c-7.82,2.19-10.12,12.31-16.87,17.25-10.99,8.02-26.07.92-26.47-13.13-.22-7.98,1.51-24.05,3.04-32.05s7.07-12.7,15.11-9.49c6.75,2.69,6.82,11.84,6.46,17.93.58.79,11.8-10.59,12.76-11.61,5.97-6.32,9.32-16.04,20.18-8.22,10.68,7.69,9.76,36.42,9.08,48.73-.87,15.85-5.91,28.71-8.83,43.67-1.13,5.8.22,13.73-4.73,17.77-5.48,4.47-20.19,4.14-20.73-4.57,3.55-22.08,13.32-43.62,11-66.27Z"/>
      <path class="cls-1" d="M252.66,5.9c9.58-2.15,15.85,4.54,15.99,13.75.26,17.64-3.36,37.52-3.05,55.43-1.48,9.6,2.13,22.45.73,31.48-.82,5.31-7.47,10.93-12.9,8.49-6.07-2.74-7.88-9.29-8.71-15.28-2.89-20.9-.66-55.65,1.41-77.15.46-4.73.95-15.47,6.53-16.72Z"/>
      <path class="cls-1" d="M219.69,77.15c11.12-1.61,19.95,15.47,12.2,24.23-13.49,15.25-29.48-21.73-12.2-24.23Z"/>
      <path class="cls-1" d="M220.43,27.66c8.81-1.79,16.19,7.53,11.34,15.85-6.82,11.68-24.94,1.17-17.77-11.02,1.12-1.91,4.27-4.38,6.44-4.82Z"/>
    </g>
  </g>
</svg>